# xmcd
#
# Track frame offsets:
#	150
#	19029
#	41754
#	70880
#	83063
#	103313
#	129612
#	140377
#	165446
#	179733
#	205915
#	219262
#	237713
#	250826
#	268917
#
# Disc length: 4040 seconds
#
# Revision: 1
# Processed by: cddbd v1.5.2PL0 Copyright (c) Steve Scherf et al.
# Submitted via: EasyCDDAExtractor 10.0.1.1
#
DISCID=e10fc60f
DTITLE=Billy's Band - Being Tom Waits
DYEAR=2005
DGENRE=Blues
TTITLE0=So Long I'll see yA
TTITLE1=Clap hAnds
TTITLE2=Chocolate Jesus
TTITLE3=Temptation
TTITLE4=TAngo till  they're sore
TTITLE5=Cold ground
TTITLE6=I'll be gone
TTITLE7=I'll shoot the moon
TTITLE8=Ice creAm man
TTITLE9=Gunstreet girl
TTITLE10=Down in A Hole
TTITLE11=More thAn rain
TTITLE12=Jockey full of bourbon
TTITLE13=ReeperbAhn
TTITLE14=Blue Valentines
EXTD=YEAR: 2005
EXTT0=
EXTT1=
EXTT2=
EXTT3=
EXTT4=
EXTT5=
EXTT6=
EXTT7=
EXTT8=
EXTT9=
EXTT10=
EXTT11=
EXTT12=
EXTT13=
EXTT14=
PLAYORDER=
